# xmcd
# Track frame offsets:
# 150
# 9158
# 19571
# 29764
# 42411
# 60097
# 72879
# 82600
# 91840
# 100525
# 111649
# 121703
# 131101
# 143578
# 152769
# 164029
# 174173
# 190132
# 199144
# 210159
# 221932
# 234998
# 251986
# 261059
# 276085
# 285183
# 305420
# 311859
# 328069
# 341848
#
# Disc length: 4702 seconds
# Revision: 0
# Processed by: cddbd v1.5.2PL0 Copyright (c) Steve Scherf et al.
# Submitted via: VisiTrax 2.11.3.279 - For more info visit www.synapsa.com
#
DISCID=a1125c1e
DTITLE=Rolling Stones The - Lost Treasures From The Brian Jones Era: TheClass
DTITLE=ic Broadcasts: CD1:  British Broadcasting Compendium - Live, *Remaster
DTITLE=ed Tracks
DYEAR=1963
DGENRE=R&B
TTITLE0=Come On* [Live at BBC: Sept 1963]
TTITLE1=Memphis Tennessee* [Live at BBC: Sept 1963]
TTITLE2=Roll Over Beethoven* [Live at BBC: Sept 1963]
TTITLE3=Route 66* [Live at BBC: March 1964]
TTITLE4=Cops And Robbers* [Live at BBC: March 1964]
TTITLE5=You Better Move On* [Live at BBC: March 1964]
TTITLE6=Mona* [Live at BBC: March 1964]
TTITLE7=Not Fade Away* [Live at BBC "Joe Loss Show": April 1964]
TTITLE8=High Heel Sneakers* [Live at BBC "Joe Loss Show": April 1964]
TTITLE9=Little By Little* [Live at BBC "Joe Loss Show": April 1964]
TTITLE10=I Just Wanna Make Love To You* [Live at BBC "Joe Loss Show": April 196
TTITLE10=4]
TTITLE11=I'm Moving On* [Live at BBC "Joe Loss Show": April 1964]
TTITLE12=Around And Around* [Live at BBC "Top Gear": Julyl 1964]
TTITLE13=If You Need Me* [Live at BBC "Top Gear": Julyl 1964]
TTITLE14=I Can't Be Satisfied* [Live at BBC "Top Gear": Julyl 1964]
TTITLE15=Crackin' Up* [Live at BBC "Top Gear": Julyl 1964]
TTITLE16=It's All Over Now* [Live at BBC "Joe Loss Show": Julyl 1964]
TTITLE17=If You Need Me* [Live at BBC "Joe Loss Show": Julyl 1964]
TTITLE18=Confessin' The Blues* [Live at BBC "Joe Loss Show": Julyl 1964]
TTITLE19=Carol* [Live at BBC "Joe Loss Show": Julyl 1964]
TTITLE20=Mona* [Live at BBC "Joe Loss Show": Julyl 1964]
TTITLE21=2120 South Michigan Ave* [Live at BBC: October 1964]
TTITLE22=Down The Road Apiece* [Live at BBC: March 1965]
TTITLE23=(I Can't Get No) Satisfaction* [Live-Ready Steady Go: August 1965]
TTITLE24=That's How Strong My Love Is* [Live-Ready Steady Go: September 1965]
TTITLE25=(I Can't Get No) Satisfaction* [Live-Ready Steady Go: September 1965]
TTITLE26=Oh Baby We Got A Good Thing Goin'* [Live-Ready Steady Go: September 19
TTITLE26=65]
TTITLE27=Under My Thumb* [Live-Ready Steady Go: May 1965]
TTITLE28=I Am Waiting* [Live-Ready Steady Go: May 1965]
TTITLE29=Paint It Black* [Live-Ready Steady Go: May 1965]
EXTD=Compilation and ReMastering: AngloAtlantic Records: 2017
EXTT0=
EXTT1=
EXTT2=
EXTT3=
EXTT4=
EXTT5=
EXTT6=
EXTT7=
EXTT8=
EXTT9=
EXTT10=
EXTT11=
EXTT12=
EXTT13=
EXTT14=
EXTT15=
EXTT16=
EXTT17=
EXTT18=
EXTT19=
EXTT20=
EXTT21=
EXTT22=
EXTT23=
EXTT24=
EXTT25=
EXTT26=
EXTT27=
EXTT28=
EXTT29=
PLAYORDER=
